<?xml version="1.0" encoding="UTF-8" standalone="no"?>
<!-- Created with Inkscape (http://www.inkscape.org/) -->

<svg
   xmlns:dc="http://purl.org/dc/elements/1.1/"
   xmlns:cc="http://creativecommons.org/ns#"
   xmlns:rdf="http://www.w3.org/1999/02/22-rdf-syntax-ns#"
   xmlns:svg="http://www.w3.org/2000/svg"
   xmlns="http://www.w3.org/2000/svg"
   xmlns:sodipodi="http://sodipodi.sourceforge.net/DTD/sodipodi-0.dtd"
   xmlns:inkscape="http://www.inkscape.org/namespaces/inkscape"
   id="svg2"
   version="1.1"
   inkscape:version="0.91 r13725"
   xml:space="preserve"
   width="1000"
   height="1000"
   viewBox="0 0 1000 1000"
   sodipodi:docname="kreitek-logo-new-centrado-sinfondo.svg"><metadata
     id="metadata8"><rdf:RDF><cc:Work
         rdf:about=""><dc:format>image/svg+xml</dc:format><dc:type
           rdf:resource="http://purl.org/dc/dcmitype/StillImage" /><dc:title></dc:title></cc:Work></rdf:RDF></metadata><defs
     id="defs6"><clipPath
       clipPathUnits="userSpaceOnUse"
       id="clipPath18"><path
         d="m 0,3753.87 0,0 0,4246.13 3515.2,0 0,-1941.87 -951.91,0 c -219.15,0 -396.82,-177.66 -396.82,-396.82 l 0,-1415.19 -2166.47,0 0,-492.25"
         id="path20"
         inkscape:connector-curvature="0" /></clipPath><clipPath
       clipPathUnits="userSpaceOnUse"
       id="clipPath30"><path
         d="m 8000,4246.14 -1858.75,0 0,1415.17 0,0 c 0,219.16 -177.66,396.82 -396.82,396.82 l -1259.63,0 0,1941.87 -969.6,0 0,0 4484.8,0 0,-3753.86"
         id="path32"
         inkscape:connector-curvature="0" /></clipPath><clipPath
       clipPathUnits="userSpaceOnUse"
       id="clipPath42"><path
         d="m 4484.8,6058.13 -969.6,0 0,1941.87 969.6,0 0,-1941.87"
         id="path44"
         inkscape:connector-curvature="0" /></clipPath><clipPath
       clipPathUnits="userSpaceOnUse"
       id="clipPath54"><path
         d="M 3515.2,0 0,0 l 0,3753.87 2166.47,0 0,-1273.7 0,0 c 0,-219.14 177.67,-396.83 396.82,-396.83 l 951.91,0 0,-199.08 C 1895.36,1858.6 667.855,1736.27 667.855,1589.22 c 0,-147.04 1227.505,-269.37 2847.345,-295.03 L 3515.2,0"
         id="path56"
         inkscape:connector-curvature="0" /></clipPath><clipPath
       clipPathUnits="userSpaceOnUse"
       id="clipPath66"><path
         d="m 0,3753.87 2166.47,0 0,492.25 -2166.47,0 0,-492.25 z"
         id="path68"
         inkscape:connector-curvature="0" /></clipPath><clipPath
       clipPathUnits="userSpaceOnUse"
       id="clipPath78"><path
         d="m 8000,0 -4484.8,0 969.58,0 0,1290.62 c 1764.2,14.6 3143.77,142.71 3143.77,298.6 0,155.89 -1379.57,284.01 -3143.77,298.6 l 0,195.52 1259.65,0 c 219.16,0 396.82,177.69 396.82,396.83 l 0,1273.69 1858.75,0 0,492.28 L 8000,0"
         id="path80"
         inkscape:connector-curvature="0" /></clipPath><clipPath
       clipPathUnits="userSpaceOnUse"
       id="clipPath90"><path
         d="m 6141.25,3753.86 1858.75,0 0,492.281 -1858.75,0 0,-492.281 z"
         id="path92"
         inkscape:connector-curvature="0" /></clipPath><clipPath
       clipPathUnits="userSpaceOnUse"
       id="clipPath102"><path
         d="m 4484.78,0 -969.58,0 0,1294.19 c 205.31,-3.25 416.79,-4.95 633,-4.95 113.57,0 225.8,0.47 336.58,1.38 L 4484.78,0 m -969.58,1884.26 0,199.08 969.58,0 0,-195.52 c -110.78,0.92 -223.01,1.39 -336.58,1.39 -216.21,0 -427.69,-1.7 -633,-4.95"
         id="path104"
         inkscape:connector-curvature="0" /></clipPath><clipPath
       clipPathUnits="userSpaceOnUse"
       id="clipPath178"><path
         d="m 5744.43,2083.34 -1259.65,0 -969.58,0 -951.91,0 c -219.15,0 -396.82,177.69 -396.82,396.83 l 0,3181.14 c 0,219.16 177.67,396.82 396.82,396.82 l 3181.14,0 c 219.16,0 396.82,-177.66 396.82,-396.82 l 0,-1415.17 0,-492.28 0,-1273.69 c 0,-219.14 -177.66,-396.83 -396.82,-396.83"
         id="path180"
         inkscape:connector-curvature="0" /></clipPath><clipPath
       clipPathUnits="userSpaceOnUse"
       id="clipPath214"><path
         d="m 3515.2,1294.19 c -1619.84,25.66 -2847.345,147.99 -2847.345,295.03 0,147.05 1227.505,269.38 2847.345,295.04 l 0,-590.07"
         id="path216"
         inkscape:connector-curvature="0" /></clipPath><clipPath
       clipPathUnits="userSpaceOnUse"
       id="clipPath226"><path
         d="m 4484.78,1290.62 0,597.2 c 1764.2,-14.59 3143.77,-142.71 3143.77,-298.6 0,-155.89 -1379.57,-284 -3143.77,-298.6"
         id="path228"
         inkscape:connector-curvature="0" /></clipPath><clipPath
       clipPathUnits="userSpaceOnUse"
       id="clipPath238"><path
         d="m 4148.2,1289.24 c -216.21,0 -427.69,1.7 -633,4.95 l 0,590.07 c 205.31,3.25 416.79,4.95 633,4.95 113.57,0 225.8,-0.47 336.58,-1.39 l 0,-597.2 c -110.78,-0.91 -223.01,-1.38 -336.58,-1.38"
         id="path240"
         inkscape:connector-curvature="0" /></clipPath></defs><sodipodi:namedview
     pagecolor="#ffffff"
     bordercolor="#666666"
     borderopacity="1"
     objecttolerance="10"
     gridtolerance="10"
     guidetolerance="10"
     inkscape:pageopacity="0"
     inkscape:pageshadow="2"
     inkscape:window-width="1920"
     inkscape:window-height="1018"
     id="namedview4"
     showgrid="false"
     inkscape:zoom="0.944"
     inkscape:cx="319.96648"
     inkscape:cy="439.42529"
     inkscape:window-x="-8"
     inkscape:window-y="-8"
     inkscape:window-maximized="1"
     inkscape:current-layer="g10"
     showguides="true"
     inkscape:guide-bbox="true" /><g
     id="g10"
     inkscape:groupmode="layer"
     inkscape:label="ink_ext_XXXXXX"
     transform="matrix(1.25,0,0,-1.25,0,1000)"><flowRoot
       xml:space="preserve"
       id="flowRoot3572"
       style="fill:black;stroke:none;stroke-opacity:1;stroke-width:1px;stroke-linejoin:miter;stroke-linecap:butt;fill-opacity:1;font-family:sans-serif;font-style:normal;font-weight:normal;font-size:40px;line-height:125%;letter-spacing:0px;word-spacing:0px"><flowRegion
         id="flowRegion3574"><rect
           id="rect3576"
           width="430.70593"
           height="78.65065"
           x="300.37057"
           y="399.25885" /></flowRegion><flowPara
         id="flowPara3578" /></flowRoot><path
       style="font-style:normal;font-weight:normal;font-size:43.49608994px;line-height:125%;font-family:sans-serif;letter-spacing:0px;word-spacing:0px;fill:#1f545d;fill-opacity:1;stroke:none;stroke-width:1px;stroke-linecap:butt;stroke-linejoin:miter;stroke-opacity:1"
       d="M 321.02148 227.84375 C 312.22773 227.84125 303.77648 229.6332 296.11523 232.87695 C 284.61523 237.74445 274.87672 245.83852 267.98047 256.04102 C 261.08422 266.23477 257.03867 278.62102 257.04492 291.82227 L 257.04492 689.46484 C 257.04242 698.25859 258.83437 706.70859 262.07812 714.37109 C 266.94563 725.87109 275.03844 735.60961 285.24219 742.50586 C 295.43469 749.40336 307.82148 753.44961 321.02148 753.44336 L 718.66406 753.44336 C 727.45906 753.44586 735.91172 751.65195 743.57422 748.4082 C 755.07422 743.53945 764.81203 735.44789 771.70703 725.24414 C 778.60328 715.05039 782.64883 702.66484 782.64258 689.46484 L 782.64258 291.82227 C 782.64508 283.02852 780.85117 274.57531 777.60742 266.91406 C 772.74117 255.41406 764.64781 245.67555 754.44531 238.7793 C 744.25156 231.88305 731.86531 227.8375 718.66406 227.84375 L 321.02148 227.84375 z M 321.02148 256.59375 L 453.46484 256.59375 L 453.29492 289.26562 L 415.88281 289.38477 L 415.85742 282.58789 C 415.83342 276.02269 410.28015 270.69903 403.47852 270.7207 L 377.85938 270.80273 C 371.05775 270.82448 365.54435 276.18286 365.56836 282.74805 L 365.6582 307.47656 C 365.6822 314.04176 371.23547 319.36542 378.03711 319.34375 L 403.65625 319.26172 C 410.45789 319.23997 415.97128 313.88161 415.94727 307.31641 L 415.92383 301.03125 L 459.37109 300.89258 C 462.70294 300.88258 465.36883 298.26648 465.38281 295.04883 L 465.54883 256.59375 L 474.73828 256.59375 L 474.93555 361.54688 L 450.89844 361.62305 C 450.66364 361.62375 450.43279 361.64014 450.20508 361.66602 L 450.18359 355.5332 C 450.15959 348.96799 444.60633 343.64628 437.80469 343.66797 L 412.18555 343.74805 C 405.38391 343.7698 399.86857 349.1301 399.89258 355.69531 L 399.98438 380.42383 C 400.00838 386.98902 405.56164 392.31269 412.36328 392.29102 L 437.98242 392.20898 C 444.78406 392.18723 450.29746 386.82886 450.27344 380.26367 L 450.24805 373.23047 C 450.47587 373.25497 450.70668 373.27041 450.94141 373.26953 L 481.00977 373.17383 C 484.34247 373.16383 487.02776 370.54889 487.02148 367.33203 L 486.80469 256.59375 L 496.66797 256.59375 L 497.24023 402.64258 L 310.17188 403.12305 C 306.84086 403.13305 304.1471 405.60149 304.1582 408.63477 C 304.16945 411.66802 306.88187 414.11602 310.21289 414.10742 L 503.3125 413.60938 C 506.6452 413.59938 509.33802 411.13092 509.32617 408.09766 L 508.73438 256.59375 L 528.0957 256.59375 L 528.46289 405.99805 C 528.47039 409.03131 531.27316 411.4807 534.71875 411.4707 L 726.71289 410.85938 C 730.15674 410.84812 732.94289 408.38091 732.93164 405.34766 C 732.92039 402.31441 730.11767 399.865 726.67383 399.875 L 540.91602 400.4668 L 540.56641 256.59375 L 550.7832 256.59375 L 551.21875 365.08984 C 551.23163 368.30669 554.03099 370.90258 557.47656 370.89258 L 588.5625 370.79297 C 588.8063 370.79219 589.04482 370.77613 589.28125 370.75 L 589.30664 377.7832 C 589.33064 384.3484 595.07152 389.6708 602.10352 389.64844 L 628.58984 389.56445 C 635.62186 389.54208 641.32283 384.18239 641.29883 377.61719 L 641.20898 352.88672 C 641.18498 346.32149 635.44411 340.99911 628.41211 341.02148 L 601.92578 341.10547 C 594.89378 341.12784 589.1928 346.48751 589.2168 353.05273 L 589.23828 359.18555 C 589.00292 359.16105 588.76398 359.14573 588.52148 359.14648 L 563.66992 359.22656 L 563.25781 256.59375 L 572.88867 256.59375 L 573.05273 292.66797 C 573.06748 295.88563 575.86586 298.48266 579.31055 298.47266 L 624.22852 298.33008 L 624.25195 304.61523 C 624.27595 311.18043 630.01488 316.50284 637.04688 316.48047 L 663.53516 316.39648 C 670.56714 316.37411 676.26814 311.01442 676.24414 304.44922 L 676.1543 279.7207 C 676.1303 273.15553 670.38942 267.83114 663.35742 267.85352 L 636.87109 267.93945 C 629.83912 267.96183 624.13614 273.32152 624.16016 279.88672 L 624.18555 286.68359 L 585.50586 286.80664 L 585.36328 256.59375 L 718.66406 256.59375 C 723.56781 256.59625 728.16555 257.58117 732.37305 259.35742 C 738.67555 262.01992 744.08352 266.50477 747.88477 272.13477 C 751.68477 277.77477 753.88633 284.47602 753.89258 291.82227 L 753.89258 689.46484 C 753.89008 694.36859 752.90516 698.96438 751.12891 703.17188 C 748.46641 709.47563 743.98156 714.88234 738.35156 718.68359 C 732.71156 722.48484 726.01031 724.68711 718.66406 724.69336 L 583.84375 724.69336 L 583.92578 684.67578 L 621.33789 684.4375 L 621.38281 691.23438 C 621.42769 697.79946 626.99727 703.10588 633.79883 703.0625 L 659.41797 702.89648 C 666.21949 702.85298 671.71878 697.47718 671.67383 690.91211 L 671.50195 666.18359 C 671.45708 659.61849 665.88944 654.31213 659.08789 654.35547 L 633.46875 654.51953 C 626.66724 654.56303 621.16993 659.94077 621.21484 666.50586 L 621.25781 672.79102 L 577.8125 673.06641 C 574.48069 673.08703 571.82211 675.71395 571.81836 678.93164 L 571.76562 724.69336 L 562.62109 724.69336 L 562.05469 612.46289 L 586.08984 612.30859 C 586.32462 612.30756 586.5556 612.28822 586.7832 612.26172 L 586.82422 618.39648 C 586.86909 624.96161 592.44065 630.26602 599.24219 630.22266 L 624.86133 630.06055 C 631.66284 630.01705 637.15822 624.64127 637.11328 618.07617 L 636.94531 593.34766 C 636.90044 586.78259 631.32886 581.47617 624.52734 581.51953 L 598.9082 581.68359 C 592.10667 581.72709 586.6113 587.10289 586.65625 593.66797 L 586.70312 600.70117 C 586.47528 600.67742 586.24442 600.66256 586.00977 600.66406 L 555.94141 600.85547 C 552.60876 600.87609 549.93268 603.50193 549.94922 606.71875 L 550.55469 724.69336 L 540.70508 724.69336 L 539.61719 571.4375 L 726.50391 570.35742 C 729.83488 570.3368 732.51881 567.86134 732.49805 564.82812 C 732.47717 561.79492 729.76065 559.35181 726.42969 559.37305 L 533.50977 560.49219 C 530.1771 560.51281 527.49412 562.98828 527.51562 566.02148 L 528.64062 724.69336 L 509.26953 724.69336 L 508.38672 568.18164 C 508.36959 565.14843 505.55687 562.7075 502.11133 562.72852 L 310.11914 563.95312 C 306.67534 563.97513 303.89905 566.45116 303.91992 569.48438 C 303.94067 572.51756 306.74956 574.9585 310.19336 574.9375 L 495.94922 573.75391 L 496.79492 724.69336 L 486.5918 724.69336 L 485.75977 609.16406 C 485.73652 605.94726 482.92795 603.35987 479.48242 603.38086 L 448.39648 603.57812 C 448.15336 603.57915 447.91539 603.59825 447.67969 603.625 L 447.63086 596.5918 C 447.58598 590.0267 441.82876 584.72282 434.79688 584.76758 L 408.31055 584.9375 C 401.27866 584.98238 395.59376 590.35873 395.63867 596.92383 L 395.80859 621.65234 C 395.85347 628.21747 401.61068 633.52131 408.64258 633.47656 L 435.12891 633.30859 C 442.16079 633.26384 447.84571 627.88545 447.80078 621.32031 L 447.75977 615.18945 C 447.99514 615.2132 448.23415 615.22611 448.47656 615.22461 L 473.32617 615.06641 L 474.11719 724.69336 L 464.49023 724.69336 L 464.15625 681.6543 C 464.13112 678.43671 461.3255 675.85009 457.88086 675.87109 L 412.96289 676.15625 L 412.91992 669.87109 C 412.87505 663.30599 407.11784 658.00017 400.08594 658.04492 L 373.59961 658.21484 C 366.56771 658.25972 360.88281 663.63803 360.92773 670.20312 L 361.09766 694.93164 C 361.14253 701.49672 366.89975 706.80061 373.93164 706.75586 L 400.41797 706.58594 C 407.44986 706.54106 413.13477 701.1647 413.08984 694.59961 L 413.04297 687.80273 L 451.7207 687.55664 L 452.01367 724.69336 L 321.02148 724.69336 C 316.11898 724.69086 311.52266 723.70594 307.31641 721.92969 C 301.01266 719.26594 295.60398 714.78039 291.80273 709.15039 C 288.00273 703.50914 285.80117 696.80984 285.79492 689.46484 L 285.79492 291.82227 C 285.79742 286.91852 286.78039 282.31953 288.55664 278.11328 C 291.21914 271.80953 295.70664 266.40281 301.33789 262.60156 C 306.97664 258.80156 313.67648 256.6 321.02148 256.59375 z M 663.11328 280.03125 L 663.20117 304.2207 L 637.29102 304.30469 L 637.20312 280.11328 L 663.11328 280.03125 z M 403.24414 282.89648 L 403.33203 307.08789 L 378.27148 307.16797 L 378.18359 282.97656 L 403.24414 282.89648 z M 628.16797 353.19922 L 628.25781 377.38867 L 602.34766 377.4707 L 602.25781 353.28125 L 628.16797 353.19922 z M 437.57031 355.84375 L 437.6582 380.0332 L 412.59766 380.11328 L 412.50781 355.92383 L 437.57031 355.84375 z M 348.06445 448.0918 C 347.94499 448.21126 346.94975 449.06728 345.07812 450.66016 C 343.24632 452.21321 340.75725 454.44261 337.61133 457.34961 C 334.4654 460.2566 331.22004 463.42298 327.875 466.84766 C 321.70261 473.25898 316.72644 479.09312 312.94336 484.34961 L 312.94336 448.21094 L 303.50391 448.21094 L 303.50391 526.64062 L 312.94336 526.64062 L 312.94336 500.59766 C 314.13802 497.7703 316.40692 494.4045 319.75195 490.50195 C 323.81378 494.44432 329.26978 500.79583 336.11914 509.55664 C 343.00832 518.27763 347.10971 524.2115 348.42383 527.35742 L 356.42773 522.81641 C 355.03397 519.1528 350.59393 512.66206 343.10742 503.34375 C 335.66073 493.98561 329.78709 487.21645 325.48633 483.03516 C 328.39332 479.53083 332.79387 474.75214 338.6875 468.69922 C 344.62096 462.60647 349.95651 457.84851 354.69531 454.42383 L 348.06445 448.0918 z M 727.9668 448.0918 C 727.84733 448.21126 726.85014 449.06728 724.97852 450.66016 C 723.14671 452.21321 720.65765 454.44261 717.51172 457.34961 C 714.36579 460.2566 711.12043 463.42298 707.77539 466.84766 C 701.603 473.25898 696.62683 479.09312 692.84375 484.34961 L 692.84375 448.21094 L 683.4043 448.21094 L 683.4043 526.64062 L 692.84375 526.64062 L 692.84375 500.59766 C 694.03841 497.7703 696.30731 494.4045 699.65234 490.50195 C 703.71417 494.44432 709.17017 500.79583 716.01953 509.55664 C 722.90871 518.27763 727.0101 524.2115 728.32422 527.35742 L 736.32812 522.81641 C 734.93436 519.1528 730.49432 512.66206 723.00781 503.34375 C 715.56113 493.98561 709.68748 487.21645 705.38672 483.03516 C 708.29371 479.53083 712.69426 474.75214 718.58789 468.69922 C 724.52135 462.60647 729.8569 457.84851 734.5957 454.42383 L 727.9668 448.0918 z M 377.99219 448.50977 C 375.56305 448.50977 371.22273 448.80892 364.9707 449.40625 C 365.16981 452.43271 365.26758 455.91701 365.26758 459.85938 L 365.26758 526.3418 L 374.70703 526.3418 L 374.64648 492.47266 C 380.57994 493.4682 385.0802 494.12478 388.14648 494.44336 C 396.70818 508.85887 402.89976 518.15855 406.72266 522.33984 C 407.79785 523.65397 409.09224 524.80914 410.60547 525.80469 C 412.15852 526.80023 413.77084 527.41732 415.44336 527.65625 L 418.96875 519.65234 C 418.49089 519.53288 418.01302 519.37294 417.53516 519.17383 C 417.09712 518.9349 416.65874 518.65647 416.2207 518.33789 C 415.82248 518.01932 415.48383 517.75966 415.20508 517.56055 C 414.96615 517.32162 414.64822 517.02246 414.25 516.66406 C 413.85178 516.30567 413.61285 516.08746 413.5332 516.00781 C 412.89605 515.2512 412.1378 514.29546 411.26172 513.14062 C 410.42546 511.98579 409.37196 510.45246 408.09766 508.54102 C 406.82336 506.58974 405.84689 505.09592 405.16992 504.06055 C 404.53277 503.02518 403.3776 501.19465 401.70508 498.56641 C 400.03256 495.93816 399.07682 494.44433 398.83789 494.08594 C 409.7889 492.29395 415.26562 484.9472 415.26562 472.04492 C 415.26562 469.61579 414.80653 467.18695 413.89062 464.75781 C 412.97472 462.28886 411.78005 460.13845 410.30664 458.30664 C 408.87305 456.55448 407.26073 455.07942 405.46875 453.88477 C 403.71659 452.65029 401.94433 451.69455 400.15234 451.01758 C 398.36036 450.30078 396.18922 449.76465 393.64062 449.40625 C 391.09203 449.00803 388.68391 448.7691 386.41406 448.68945 C 384.18404 448.56999 381.37705 448.50977 377.99219 448.50977 z M 515.49609 448.57031 C 508.44763 448.57031 501.81768 448.64931 495.60547 448.80859 L 495.96289 458.00781 C 498.83006 457.84853 504.08663 457.70931 511.73242 457.58984 L 511.73242 517.32227 L 507.25391 517.32227 C 503.82923 517.32227 500.00627 517.42198 495.78516 517.62109 L 495.78516 526.52148 C 499.28948 526.52148 503.1707 526.46126 507.43164 526.3418 C 511.69258 526.18251 514.36231 526.10352 515.4375 526.10352 L 520.33398 526.10352 C 522.3649 526.06369 523.81923 526.04297 524.69531 526.04297 C 528.99607 526.04297 533.17645 526.16146 537.23828 526.40039 L 537.23828 517.44141 C 534.49057 517.28212 531.62336 517.20312 528.63672 517.20312 C 527.60135 517.20312 526.32768 517.2219 524.81445 517.26172 L 521.29102 517.26172 L 521.29102 457.5293 C 523.083 457.5293 525.53061 457.58952 528.63672 457.70898 C 531.78265 457.78863 534.64986 457.82812 537.23828 457.82812 L 537.23828 448.74805 C 527.48193 448.62858 520.23489 448.57031 515.49609 448.57031 z M 597.80859 448.74805 C 593.74676 448.74805 585.64176 448.76877 573.49609 448.80859 L 552.17188 448.80859 L 552.17188 458.06641 L 560.29688 458.06641 C 564.83657 458.02658 569.37437 458.00781 573.91406 458.00781 L 573.91406 526.87891 L 583.47266 526.87891 L 583.47266 458.00781 L 597.50977 458.00781 C 599.50086 458.00781 601.73026 458.24675 604.19922 458.72461 L 606.16992 449.64453 C 602.58595 449.0472 599.79969 448.74805 597.80859 448.74805 z M 441.48828 448.86719 C 435.59465 448.86719 431.53276 448.94813 429.30273 449.10742 L 429.30273 526.52148 L 470.03906 526.52148 C 471.11425 526.52148 472.13021 526.46126 473.08594 526.3418 C 474.08148 526.22233 474.83778 526.10189 475.35547 525.98242 C 475.87315 525.82313 476.61068 525.60492 477.56641 525.32617 C 478.52213 525.04742 479.17871 524.84798 479.53711 524.72852 L 476.9082 515.88867 L 475.89258 516.30664 C 475.21561 516.54557 474.30132 516.80328 473.14648 517.08203 C 471.99165 517.32096 470.91547 517.44141 469.91992 517.44141 L 438.56055 517.56055 C 438.56055 516.64464 438.58127 512.72197 438.62109 505.79297 C 438.70074 498.82414 438.74023 493.01072 438.74023 488.35156 L 438.74023 486.55859 L 464.90234 486.55859 L 464.90234 477.59961 L 438.74023 477.59961 L 438.74023 458.00781 L 476.3125 458.00781 L 476.3125 449.04688 L 475.35547 449.04688 C 474.24046 449.04688 471.21525 449.0281 466.27734 448.98828 C 461.37926 448.90864 457.25715 448.86719 453.91211 448.86719 L 447.3418 448.86719 L 441.48828 448.86719 z M 631.4375 448.86719 C 625.54387 448.86719 621.48198 448.94813 619.25195 449.10742 L 619.25195 526.52148 L 659.99023 526.52148 C 661.06542 526.52148 662.08138 526.46126 663.03711 526.3418 C 664.03266 526.22233 664.78896 526.10189 665.30664 525.98242 C 665.82432 525.82313 666.5599 525.60492 667.51562 525.32617 C 668.47135 525.04742 669.12988 524.84798 669.48828 524.72852 L 666.85938 515.88867 L 665.84375 516.30664 C 665.16678 516.54557 664.25054 516.80328 663.0957 517.08203 C 661.94087 517.32096 660.86664 517.44141 659.87109 517.44141 L 628.51172 517.56055 C 628.51172 516.64464 628.53049 512.72197 628.57031 505.79297 C 628.64996 498.82414 628.68945 493.01072 628.68945 488.35156 L 628.68945 486.55859 L 654.85352 486.55859 L 654.85352 477.59961 L 628.68945 477.59961 L 628.68945 458.00781 L 666.26172 458.00781 L 666.26172 449.04688 L 665.30664 449.04688 C 664.19163 449.04688 661.16447 449.0281 656.22656 448.98828 C 651.32847 448.90864 647.20636 448.86719 643.86133 448.86719 L 637.29102 448.86719 L 631.4375 448.86719 z M 378.29102 457.64844 C 385.14038 457.64844 390.41571 458.10753 394.11914 459.02344 C 397.82257 459.89952 400.65029 461.47234 402.60156 463.74219 C 404.87141 466.33061 406.00586 469.37654 406.00586 472.88086 C 406.00586 475.27017 405.74815 477.24187 405.23047 478.79492 C 404.71278 480.34797 403.85677 481.58214 402.66211 482.49805 C 401.46745 483.41395 400.15234 484.11003 398.71875 484.58789 C 397.28516 485.02593 395.41318 485.38531 393.10352 485.66406 C 392.14779 485.78353 391.17328 485.8418 390.17773 485.8418 C 388.70433 485.8418 387.2105 485.74403 385.69727 485.54492 C 384.18404 485.30599 382.21234 484.94661 379.7832 484.46875 C 377.35407 483.95107 375.64203 483.59364 374.64648 483.39453 L 374.52734 457.70898 C 375.68218 457.66916 376.93707 457.64844 378.29102 457.64844 z M 624.33398 593.69727 L 624.5 617.88672 L 599.43555 618.04492 L 599.27148 593.85547 L 624.33398 593.69727 z M 434.5918 596.94531 L 434.75781 621.13477 L 408.84766 621.29883 L 408.68164 597.10938 L 434.5918 596.94531 z M 658.89062 666.5332 L 659.05664 690.72266 L 633.99609 690.88477 L 633.83008 666.69336 L 658.89062 666.5332 z M 399.88086 670.22266 L 400.04688 694.41211 L 374.13672 694.57812 L 373.9707 670.38867 L 399.88086 670.22266 z "
       transform="matrix(0.8,0,0,-0.8,0,800)"
       id="text3580" /></g></svg>